<svg xmlns="http://www.w3.org/2000/svg" xmlns:xlink="http://www.w3.org/1999/xlink" width="48" zoomAndPan="magnify" viewBox="0 0 36 36.000001" height="48" preserveAspectRatio="xMidYMid meet" version="1.0"><defs><clipPath id="ad050d86a0"><path d="M 0.488281 0 L 35.511719 0 L 35.511719 35.027344 L 0.488281 35.027344 Z M 0.488281 0 " clip-rule="nonzero"/></clipPath><clipPath id="2ae0703a81"><path d="M 3.988281 3.503906 L 31.71875 3.503906 L 31.71875 31.234375 L 3.988281 31.234375 Z M 3.988281 3.503906 " clip-rule="nonzero"/></clipPath><clipPath id="af7a6d1111"><path d="M 0.488281 0 L 35.511719 0 L 35.511719 35.027344 L 0.488281 35.027344 Z M 0.488281 0 " clip-rule="nonzero"/></clipPath></defs><g clip-path="url(#ad050d86a0)"><path fill="#ffffff" d="M 0.488281 0 L 35.511719 0 L 35.511719 35.027344 L 0.488281 35.027344 Z M 0.488281 0 " fill-opacity="1" fill-rule="nonzero"/><path fill="#ffffff" d="M 0.488281 0 L 35.511719 0 L 35.511719 35.027344 L 0.488281 35.027344 Z M 0.488281 0 " fill-opacity="1" fill-rule="nonzero"/></g><g clip-path="url(#2ae0703a81)"><path fill="#24265d" d="M 31.253906 7.742188 C 31.746094 7.265625 31.992188 6.683594 31.984375 5.996094 C 31.992188 5.3125 31.746094 4.722656 31.253906 4.230469 C 30.777344 3.753906 30.195312 3.507812 29.507812 3.503906 C 28.824219 3.507812 28.234375 3.753906 27.746094 4.230469 L 17.996094 14 L 8.230469 4.230469 C 7.75 3.753906 7.167969 3.507812 6.484375 3.503906 C 5.796875 3.507812 5.210938 3.753906 4.71875 4.230469 C 4.238281 4.722656 3.996094 5.3125 3.988281 5.996094 C 3.996094 6.683594 4.238281 7.265625 4.71875 7.742188 L 14.484375 17.511719 L 4.71875 27.257812 C 4.238281 27.75 3.996094 28.335938 3.988281 29.023438 C 3.996094 29.707031 4.238281 30.289062 4.71875 30.769531 C 5.210938 31.261719 5.796875 31.503906 6.484375 31.5 C 7.167969 31.503906 7.75 31.261719 8.230469 30.769531 L 17.996094 21.023438 L 27.746094 30.769531 C 28.234375 31.261719 28.824219 31.503906 29.507812 31.5 C 30.195312 31.503906 30.777344 31.261719 31.253906 30.769531 C 31.746094 30.289062 31.992188 29.707031 31.984375 29.023438 C 31.992188 28.335938 31.746094 27.75 31.253906 27.257812 L 21.507812 17.511719 Z M 31.253906 7.742188 " fill-opacity="1" fill-rule="nonzero"/></g><g clip-path="url(#af7a6d1111)"><path fill="#24265d" d="M 34.992188 -0.0195312 L 0.96875 -0.0195312 C 0.691406 -0.0195312 0.464844 0.203125 0.464844 0.480469 L 0.464844 34.507812 C 0.464844 34.78125 0.691406 35.007812 0.96875 35.007812 L 34.992188 35.007812 C 35.269531 35.007812 35.492188 34.78125 35.492188 34.507812 L 35.492188 0.480469 C 35.492188 0.203125 35.269531 -0.0195312 34.992188 -0.0195312 Z M 34.492188 34.007812 L 1.46875 34.007812 L 1.46875 0.980469 L 34.492188 0.980469 Z M 34.492188 34.007812 " fill-opacity="1" fill-rule="nonzero"/></g></svg>