<svg xmlns="http://www.w3.org/2000/svg" xmlns:xlink="http://www.w3.org/1999/xlink" width="48" zoomAndPan="magnify" viewBox="0 0 36 36.000001" height="48" preserveAspectRatio="xMidYMid meet" version="1.0"><defs><clipPath id="3af71bdf7b"><path d="M 0.488281 0 L 35.511719 0 L 35.511719 35.027344 L 0.488281 35.027344 Z M 0.488281 0 " clip-rule="nonzero"/></clipPath></defs><g clip-path="url(#3af71bdf7b)"><path fill="#ffffff" d="M 0.488281 0 L 35.511719 0 L 35.511719 35.027344 L 0.488281 35.027344 Z M 0.488281 0 " fill-opacity="1" fill-rule="nonzero"/><path fill="#ffffff" d="M 0.488281 0 L 35.511719 0 L 35.511719 35.027344 L 0.488281 35.027344 Z M 0.488281 0 " fill-opacity="1" fill-rule="nonzero"/></g><path stroke-linecap="butt" transform="matrix(0.72973, 0, 0, 0.72973, 3.989189, 5.327029)" fill="none" stroke-linejoin="miter" d="M -0.0012438 3.50237 L 38.401245 3.50237 " stroke="#24265d" stroke-width="7" stroke-opacity="1" stroke-miterlimit="4"/><path stroke-linecap="butt" transform="matrix(0.72973, 0, 0, 0.72973, 3.989189, 14.959461)" fill="none" stroke-linejoin="miter" d="M -0.0012438 3.497538 L 38.401245 3.497538 " stroke="#24265d" stroke-width="7" stroke-opacity="1" stroke-miterlimit="4"/><path stroke-linecap="butt" transform="matrix(0.72973, 0, 0, 0.72973, 3.989189, 24.008112)" fill="none" stroke-linejoin="miter" d="M -0.0012438 3.500458 L 38.401245 3.500458 " stroke="#24265d" stroke-width="7" stroke-opacity="1" stroke-miterlimit="4"/></svg>